<svg width="19" height="20" viewBox="0 0 19 20" fill="none" xmlns="http://www.w3.org/2000/svg">
<path d="M8.15 0.47963L4.43 6.55963C4.02 7.21963 4.5 8.07963 5.28 8.07963H12.71C13.49 8.07963 13.97 7.21963 13.56 6.55963L9.85 0.47963C9.7616 0.333266 9.63691 0.212209 9.48799 0.12818C9.33908 0.0441518 9.17099 0 9 0C8.82901 0 8.66092 0.0441518 8.51201 0.12818C8.36309 0.212209 8.2384 0.333266 8.15 0.47963Z" fill="white"/>
<path d="M14.5 19.0796C16.9853 19.0796 19 17.0649 19 14.5796C19 12.0943 16.9853 10.0796 14.5 10.0796C12.0147 10.0796 10 12.0943 10 14.5796C10 17.0649 12.0147 19.0796 14.5 19.0796Z" fill="white"/>
<path d="M1 18.5796H7C7.55 18.5796 8 18.1296 8 17.5796V11.5796C8 11.0296 7.55 10.5796 7 10.5796H1C0.45 10.5796 0 11.0296 0 11.5796V17.5796C0 18.1296 0.45 18.5796 1 18.5796Z" fill="white"/>
</svg>
