<svg width="9" height="8" viewBox="0 0 9 8" fill="none" xmlns="http://www.w3.org/2000/svg">
<path d="M8.28959 0.155199C8.13095 0.0765928 7.95647 0.026604 7.77612 0.00809158C7.59577 -0.0104208 7.4131 0.00290618 7.23854 0.0473106C7.06398 0.091715 6.90096 0.166326 6.75881 0.266876C6.61665 0.367427 6.49815 0.491944 6.41008 0.633308L3.84441 4.74492L2.37604 3.43735C2.24856 3.31981 2.09606 3.22606 1.92745 3.16156C1.75885 3.09706 1.5775 3.06311 1.394 3.06169C1.2105 3.06027 1.02852 3.09141 0.858679 3.15329C0.688837 3.21517 0.534535 3.30655 0.404776 3.4221C0.275017 3.53765 0.1724 3.67505 0.102912 3.8263C0.0334244 3.97754 -0.00154239 4.13959 5.21795e-05 4.303C0.00164674 4.4664 0.0397708 4.62789 0.1122 4.77803C0.184628 4.92818 0.289912 5.06397 0.421906 5.1775L3.18589 7.6388C3.44709 7.87201 3.79949 8 4.16296 8L4.35436 7.98769C4.56619 7.96131 4.76825 7.8915 4.94463 7.78376C5.12101 7.67602 5.2669 7.5333 5.37082 7.36683L8.8258 1.82889C8.91401 1.68764 8.97011 1.5323 8.9909 1.37175C9.01169 1.21119 8.99677 1.04856 8.94697 0.893146C8.89718 0.737728 8.8135 0.592566 8.7007 0.465949C8.58791 0.339331 8.44821 0.233738 8.28959 0.155199Z" fill="white"/>
</svg>
