<svg width="20" height="20" viewBox="0 0 20 20" fill="none" xmlns="http://www.w3.org/2000/svg">
<path d="M13.7478 0.946901C14.1229 0.571959 14.6315 0.361328 15.1618 0.361328C15.6922 0.361328 16.2008 0.571959 16.5758 0.946901L19.0508 3.4219C19.2366 3.60763 19.384 3.82814 19.4846 4.07085C19.5851 4.31355 19.6369 4.57369 19.6369 4.8364C19.6369 5.09911 19.5851 5.35925 19.4846 5.60196C19.384 5.84466 19.2366 6.06517 19.0508 6.2509L7.15783 18.1439L0.777832 19.2199L1.85483 12.8399L13.7478 0.946901ZM13.5188 4.0039L15.9938 6.4789L17.6368 4.8359L15.1618 2.3619L13.5188 4.0039ZM14.5788 7.8939L12.1048 5.4189L3.72083 13.8029L3.21783 16.7799L6.19483 16.2779L14.5788 7.8939Z" fill="#333333"/>
</svg>
