<svg width="29" height="24" viewBox="0 0 29 24" fill="none" xmlns="http://www.w3.org/2000/svg">
<path fill-rule="evenodd" clip-rule="evenodd" d="M1.41617 1.50686C-9.60297e-08 3.012 0 5.43771 0 10.2857V13.7143C0 18.5623 -9.60297e-08 20.988 1.41617 22.4931C2.83072 24 5.11044 24 9.66667 24H19.3333C23.8896 24 26.1693 24 27.5838 22.4931C29 20.988 29 18.5623 29 13.7143V10.2857C29 5.43771 29 3.012 27.5838 1.50686C26.1693 3.06538e-07 23.8896 0 19.3333 0H9.66667C5.11044 0 2.83072 3.06538e-07 1.41617 1.50686ZM5.7275 5.43086C5.37199 5.17852 4.93684 5.08679 4.51777 5.17585C4.0987 5.2649 3.73004 5.52744 3.49289 5.90571C3.25574 6.28399 3.16953 6.74701 3.25322 7.19292C3.33692 7.63883 3.58366 8.03109 3.93917 8.28343L12.7133 14.5063C13.2424 14.8815 13.8641 15.0817 14.5 15.0817C15.1359 15.0817 15.7576 14.8815 16.2867 14.5063L25.0608 8.28343C25.4163 8.03109 25.6631 7.63883 25.7468 7.19292C25.8305 6.74701 25.7443 6.28399 25.5071 5.90571C25.27 5.52744 24.9013 5.2649 24.4822 5.17585C24.0632 5.08679 23.628 5.17852 23.2725 5.43086L14.5 11.6537L5.7275 5.43086Z" fill="#333333"/>
</svg>
