<svg width="29" height="50" viewBox="0 0 29 50" fill="none" xmlns="http://www.w3.org/2000/svg">
<path d="M1.10896 1.10058C0.398889 1.80549 -2.02805e-06 2.76143 -2.07162e-06 3.75817C-2.11519e-06 4.75492 0.398889 5.71085 1.10896 6.41577L19.8576 25.0227L1.10895 43.6296C0.419012 44.3386 0.0372428 45.2881 0.0458735 46.2737C0.0545023 47.2593 0.452839 48.2021 1.15509 48.899C1.85734 49.596 2.80732 49.9913 3.80041 49.9999C4.79351 50.0084 5.75026 49.6295 6.46461 48.9448L27.891 27.6803C28.6011 26.9754 29 26.0194 29 25.0227C29 24.0259 28.6011 23.07 27.891 22.3651L6.46461 1.10058C5.75433 0.395877 4.79112 -1.0582e-06 3.78678 -1.1021e-06C2.78245 -1.14601e-06 1.81923 0.395877 1.10896 1.10058Z" fill="#F9F9F9"/>
</svg>