<svg width="29" height="50" viewBox="0 0 29 50" fill="none" xmlns="http://www.w3.org/2000/svg">
<path d="M27.891 48.8994C28.6011 48.1945 29 47.2386 29 46.2418C29 45.2451 28.6011 44.2891 27.891 43.5842L9.14245 24.9773L27.891 6.37038C28.581 5.66143 28.9628 4.7119 28.9541 3.72631C28.9455 2.74072 28.5472 1.79792 27.8449 1.10098C27.1427 0.40403 26.1927 0.00870927 25.1996 0.000141444C24.2065 -0.00842256 23.2497 0.370461 22.5354 1.05519L1.10896 22.3197C0.398892 23.0246 3.10279e-07 23.9806 2.98393e-07 24.9773C2.86507e-07 25.9741 0.398892 26.93 1.10896 27.6349L22.5354 48.8994C23.2457 49.6041 24.2089 50 25.2132 50C26.2176 50 27.1808 49.6041 27.891 48.8994Z" fill="#F9F9F9"/>
</svg>
