<svg width="25" height="24" viewBox="0 0 25 24" fill="none" xmlns="http://www.w3.org/2000/svg">
<path d="M22.5505 16.3664L19.0156 15.9789C18.6 15.9321 18.1786 15.9762 17.7833 16.1081C17.388 16.24 17.029 16.4562 16.7332 16.7405L14.1725 19.1987C10.2218 17.2698 7.01057 14.187 5.00128 10.3943L7.57591 7.92266C8.17433 7.34816 8.46659 6.54655 8.36917 5.73157L7.96558 2.36477C7.88668 1.71303 7.56087 1.11189 7.05018 0.675829C6.53949 0.239764 5.87959 -0.00077791 5.19612 1.89006e-06H2.78849C1.21588 1.89006e-06 -0.092306 1.25587 0.00511234 2.76558C0.742708 14.1753 10.248 23.287 22.1191 23.9951C23.6917 24.0886 24.9999 22.8327 24.9999 21.323V19.0117C25.0138 17.6623 23.9561 16.5267 22.5505 16.3664Z" fill="#333333"/>
</svg>
