<svg width="15" height="11" viewBox="0 0 15 11" fill="none" xmlns="http://www.w3.org/2000/svg">
<path d="M0.750452 11H14.2508C14.3875 10.9996 14.5215 10.9627 14.6384 10.8932C14.7552 10.8237 14.8505 10.7244 14.914 10.6058C14.9775 10.4873 15.0068 10.354 14.9987 10.2203C14.9906 10.0867 14.9454 9.95773 14.8681 9.84734L8.11791 0.29698C7.83815 -0.0989932 7.16463 -0.0989932 6.88413 0.29698L0.133934 9.84734C0.0558005 9.9575 0.0099812 10.0865 0.00145423 10.2204C-0.00707273 10.3543 0.0220188 10.4879 0.0855682 10.6067C0.149118 10.7255 0.244694 10.825 0.361914 10.8943C0.479133 10.9637 0.613513 11.0002 0.750452 11Z" fill="#828282"/>
</svg>
