<svg width="50" height="45" viewBox="0 0 50 45" fill="none" xmlns="http://www.w3.org/2000/svg">
<path d="M21.0672 2.29245C21.4608 1.59663 22.032 1.01776 22.7225 0.614996C23.413 0.212227 24.1981 0 24.9975 0C25.7969 0 26.582 0.212227 27.2725 0.614996C27.963 1.01776 28.5342 1.59663 28.9278 2.29245L49.3892 38.1396C51.1293 41.1898 48.9441 45 45.4539 45H4.5461C1.05586 45 -1.12929 41.1898 0.610832 38.1396L21.0672 2.29245ZM22.4973 17.4984V22.4987C22.4973 23.1617 22.7607 23.7977 23.2296 24.2665C23.6985 24.7354 24.3344 24.9988 24.9975 24.9988C25.6606 24.9988 26.2965 24.7354 26.7654 24.2665C27.2343 23.7977 27.4977 23.1617 27.4977 22.4987V17.4984C27.4977 16.8353 27.2343 16.1994 26.7654 15.7305C26.2965 15.2616 25.6606 14.9982 24.9975 14.9982C24.3344 14.9982 23.6985 15.2616 23.2296 15.7305C22.7607 16.1994 22.4973 16.8353 22.4973 17.4984ZM24.9975 28.749C24.0029 28.749 23.049 29.1441 22.3457 29.8474C21.6424 30.5507 21.2472 31.5046 21.2472 32.4993C21.2472 33.4939 21.6424 34.4478 22.3457 35.1511C23.049 35.8544 24.0029 36.2495 24.9975 36.2495C25.9921 36.2495 26.946 35.8544 27.6493 35.1511C28.3526 34.4478 28.7478 33.4939 28.7478 32.4993C28.7478 31.5046 28.3526 30.5507 27.6493 29.8474C26.946 29.1441 25.9921 28.749 24.9975 28.749Z" fill="#333333"/>
</svg>
